<svg id="Layer_1" data-name="Layer 1" xmlns="http://www.w3.org/2000/svg" viewBox="0 0 283.46 283.46"><defs><style>.cls-1{fill:none;}.cls-2{fill:currentcolor;}</style></defs><title>yoast-typo</title><rect class="cls-1" x="0.79" y="0.94" width="283.46" height="283.46"/><path class="cls-2" d="M178.84,115.81l20.34-54.54c.68-1.82,1.34-3.65,2-5.57h-1.06c-7.31,0-14.63,0-21.94,0a1.13,1.13,0,0,0-1.28.92Q171.88,70.79,166.77,85l-23.48,65.22L140.48,158c-.36-.15-.3-.43-.36-.62q-8.8-27.45-17.56-54.92c-.22-.7-.46-1-1.28-1-6.73,0-13.46,0-20.19,0a1.38,1.38,0,0,0-.88.11c.07.2.13.42.21.62,1.2,3.07,2.42,6.13,3.61,9.2q11.47,29.5,22.94,59a35.77,35.77,0,0,1,2.69,10.48,29.68,29.68,0,0,1-2.9,14.62,26,26,0,0,1-7.8,10.06,27.05,27.05,0,0,1-11.87,5c-.61.11-.7.35-.7.88q0,8.74,0,17.47c0,.62.16.75.75.69,2-.22,4.1-.33,6.13-.74a39.19,39.19,0,0,0,16.51-7,53.93,53.93,0,0,0,13.76-16.19,140.13,140.13,0,0,0,9.66-21.15Q166,150.2,178.84,115.81Z"/><path class="cls-2" d="M99,211.31c0-.43-.15-.53-.56-.54-1.71,0-3.42-.06-5.13-.14a22.36,22.36,0,0,1-3.28-.26,26.18,26.18,0,0,1-21.33-25.56q0-37.42,0-74.84a27.65,27.65,0,0,1,.51-5.38,24.93,24.93,0,0,1,6.6-12.53c4.9-5.16,10.87-8.13,18-8.16,21.39-.07,42.78,0,64.16,0a4.93,4.93,0,0,1,.68,0,.54.54,0,0,0,.64-.43l2.34-6.56H161q-33.1,0-66.2,0a33.24,33.24,0,0,0-9.25,1.25A32.19,32.19,0,0,0,72.28,85.8a31.68,31.68,0,0,0-10.51,23.89q-.07,37.57,0,75.13a34.47,34.47,0,0,0,.66,6.63,31.26,31.26,0,0,0,7.84,15.33,33.6,33.6,0,0,0,12.82,8.9c5,1.91,10.17,2.13,15.42,2,.42,0,.56-.12.55-.55Q99,214.23,99,211.31Z"/><path class="cls-2" d="M223.28,110a31,31,0,0,0-1.4-9.71c-3.3-10-9.58-17.35-19.57-21.25-.84-.33-1.09-.1-1.35.64-.53,1.55-1.08,3.09-1.72,4.6-.32.76-.11,1,.6,1.3A26.16,26.16,0,0,1,216.3,110q0,49.79,0,99.59c0,.82-.14,1.06-1,1.06q-25.38,0-50.76,0h-13.3c-.34,0-.7-.11-.92.33a75.7,75.7,0,0,1-4.1,6.66l.39,0q37.9,0,75.81,0c.85,0,.9-.32.9-1Q223.29,163.37,223.28,110Z"/></svg>