<svg width="1792" height="1792" viewBox="0 0 1792 1792" xmlns="http://www.w3.org/2000/svg">

 <g>
  <title>background</title>
  <rect fill="#d73763" id="canvas_background" height="1794" width="1794" y="-1" x="-1"/>
 </g>
 <g>
  <title>Layer 1</title>
  <path stroke="null" id="svg_1" fill="#fff" d="m1359.794128,509.504921l0,270.546566q0,15.701363 -11.474073,27.175436t-27.175436,11.474073l-270.546566,0q-25.363741,0 -35.630017,-24.155943q-10.266276,-23.552045 8.45458,-41.669002l83.338005,-83.338005q-89.376991,-82.734106 -210.760606,-82.734106q-62.805453,0 -119.873869,24.457893t-98.737419,66.126895t-66.126895,98.737419t-24.457893,119.873869t24.457893,119.873869t66.126895,98.737419t98.737419,66.126895t119.873869,24.457893q71.863932,0 135.877182,-31.402726t108.097847,-88.773092q4.22729,-6.038986 13.889667,-7.246783q9.058479,0 15.097465,5.435087l82.734106,83.338005q5.435087,4.831189 5.737037,12.379921t-4.529239,13.587718q-65.824946,79.714613 -159.429226,123.497261t-197.474837,43.782647q-94.208179,0 -179.961778,-36.837814t-147.955153,-99.039368t-99.039368,-147.955153t-36.837814,-179.961778t36.837814,-179.961778t99.039368,-147.955153t147.955153,-99.039368t179.961778,-36.837814q88.773092,0 171.809147,33.516371t147.653204,94.510129l78.506816,-77.902917q17.513059,-18.720856 42.272901,-8.45458q23.552045,10.266276 23.552045,35.630017z"/>
 </g>
</svg>