<svg width="1792" height="1792" xmlns="http://www.w3.org/2000/svg">
 <g>
  <title>background</title>
  <rect fill="none" id="canvas_background" height="15557.226476" width="15557.226476" y="-1" x="-1"/>
 </g>

 <g>
  <title>Layer 1</title>
  <rect id="svg_1" fill="#0090d7" height="100%" width="100%"/>
  <path stroke="null" id="svg_2" fill="#fff" d="m1352.793073,994.367274q0,3.073978 -0.614796,4.303569q-39.346912,164.765195 -164.765195,267.128646t-293.872251,102.363451q-89.760144,0 -173.67973,-33.813753t-149.702705,-96.522894l-79.30862,79.30862q-11.681115,11.681115 -27.665798,11.681115t-27.665798,-11.681115t-11.681115,-27.665798l0,-275.428386q0,-15.984683 11.681115,-27.665798t27.665798,-11.681115l275.428386,0q15.984683,0 27.665798,11.681115t11.681115,27.665798t-11.681115,27.665798l-84.226984,84.226984q43.650481,40.576503 98.982076,62.709141t114.966759,22.132638q82.382598,0 153.698876,-39.961708t114.351964,-110.048395q6.762751,-10.451524 32.584162,-71.931074q4.918364,-14.140297 18.443865,-14.140297l118.040737,0q7.992342,0 13.832899,5.840557t5.840557,13.832899zm15.369888,-491.836403l0,275.428386q0,15.984683 -11.681115,27.665798t-27.665798,11.681115l-275.428386,0q-15.984683,0 -27.665798,-11.681115t-11.681115,-27.665798t11.681115,-27.665798l84.84178,-84.84178q-90.989735,-84.226984 -214.563631,-84.226984q-82.382598,0 -153.698876,39.961708t-114.351964,110.048395q-6.762751,10.451524 -32.584162,71.931074q-4.918364,14.140297 -18.443865,14.140297l-122.344305,0q-7.992342,0 -13.832899,-5.840557t-5.840557,-13.832899l0,-4.303569q39.961708,-164.765195 165.994786,-267.128646t295.101842,-102.363451q89.760144,0 174.601923,34.12115t150.624898,96.215496l79.923416,-79.30862q11.681115,-11.681115 27.665798,-11.681115t27.665798,11.681115t11.681115,27.665798z"/>
 </g>
</svg>