<svg width="1792" height="1792" viewBox="0 0 1792 1792" xmlns="http://www.w3.org/2000/svg">

 <g>
  <title>background</title>
  <rect fill="none" id="canvas_background" height="402" width="582" y="-1" x="-1"/>
 </g>
 <g>
  <title>Layer 1</title>
  <rect id="svg_1" fill="#80ba27" height="100%" width="100%"/>
  <path stroke="null" id="svg_2" fill="#fff" d="m1064.666687,896.000015q0,-69.838544 -49.414064,-119.252608t-119.252608,-49.414064t-119.252608,49.414064t-49.414064,119.252608t49.414064,119.252608t119.252608,49.414064t119.252608,-49.414064t49.414064,-119.252608zm337.333344,-71.815106l0,146.265629q0,7.90625 -5.270833,15.153646t-13.177084,8.565104l-121.888025,18.447917q-12.51823,35.578126 -25.695313,59.955731q23.059897,32.942709 70.497398,90.921878q6.588542,7.90625 6.588542,16.471355t-5.929688,15.153646q-17.789063,24.377605 -65.226564,71.156252t-61.932294,46.778647q-7.90625,0 -17.130209,-5.929688l-90.921878,-71.156252q-28.989584,15.153646 -59.955731,25.036459q-10.541667,89.604169 -19.106771,122.546879q-4.611979,18.447917 -23.718751,18.447917l-146.265629,0q-9.223959,0 -16.141928,-5.600261t-7.576823,-14.165365l-18.447917,-121.22917q-32.283855,-10.541667 -59.296877,-24.377605l-92.89844,70.497398q-6.588542,5.929688 -16.471355,5.929688q-9.223959,0 -16.471355,-7.247396q-83.015628,-75.109377 -108.710941,-110.687503q-4.611979,-6.588542 -4.611979,-15.153646q0,-7.90625 5.270833,-15.153646q9.882813,-13.835938 33.601564,-43.813803t35.578126,-46.44922q-17.789063,-32.942709 -27.013022,-65.226564l-120.570316,-17.789063q-8.565104,-1.317708 -13.835938,-8.235677t-5.270833,-15.483073l0,-146.265629q0,-7.90625 5.270833,-15.153646t12.51823,-8.565104l122.546879,-18.447917q9.223959,-30.307293 25.695313,-60.614585q-26.354167,-37.554689 -70.497398,-90.921878q-6.588542,-7.90625 -6.588542,-15.8125q0,-6.588542 5.929688,-15.153646q17.130209,-23.718751 64.897137,-70.826825t62.261721,-47.108074q8.565104,0 17.130209,6.588542l90.921878,70.497398q28.989584,-15.153646 59.955731,-25.036459q10.541667,-89.604169 19.106771,-122.546879q4.611979,-18.447917 23.718751,-18.447917l146.265629,0q9.223959,0 16.141928,5.600261t7.576823,14.165365l18.447917,121.22917q32.283855,10.541667 59.296877,24.377605l93.557294,-70.497398q5.929688,-5.929688 15.8125,-5.929688q8.565104,0 16.471355,6.588542q84.99219,78.403648 108.710941,112.005212q4.611979,5.270833 4.611979,14.494792q0,7.90625 -5.270833,15.153646q-9.882813,13.835938 -33.601564,43.813803t-35.578126,46.44922q17.130209,32.942709 27.013022,64.56771l120.570316,18.447917q8.565104,1.317708 13.835938,8.235677t5.270833,15.483073z"/>
 </g>
</svg>
