<svg width="1792" height="1792" xmlns="http://www.w3.org/2000/svg">

 <g>
  <title>background</title>
  <rect fill="#9fda4f" id="canvas_background" height="1794" width="1794" y="-1" x="-1"/>
 </g>
 <g>
  <title>Layer 1</title>
  <path stroke="null" id="svg_1" fill="#fff" d="m1355.975006,1164.318774l0,76.662504q0,15.572071 -11.379591,26.951662t-26.951662,11.379591l-843.287549,0q-15.572071,0 -26.951662,-11.379591t-11.379591,-26.951662l0,-76.662504q0,-15.572071 11.379591,-26.951662t26.951662,-11.379591l843.287549,0q15.572071,0 26.951662,11.379591t11.379591,26.951662zm0,-306.650018l0,76.662504q0,15.572071 -11.379591,26.951662t-26.951662,11.379591l-843.287549,0q-15.572071,0 -26.951662,-11.379591t-11.379591,-26.951662l0,-76.662504q0,-15.572071 11.379591,-26.951662t26.951662,-11.379591l843.287549,0q15.572071,0 26.951662,11.379591t11.379591,26.951662zm0,-306.650018l0,76.662504q0,15.572071 -11.379591,26.951662t-26.951662,11.379591l-843.287549,0q-15.572071,0 -26.951662,-11.379591t-11.379591,-26.951662l0,-76.662504q0,-15.572071 11.379591,-26.951662t26.951662,-11.379591l843.287549,0q15.572071,0 26.951662,11.379591t11.379591,26.951662z"/>
 </g>
</svg>