<svg width="1792" height="1792" viewBox="0 0 1792 1792" xmlns="http://www.w3.org/2000/svg">

 <g>
  <title>background</title>
  <rect fill="#f39208" id="canvas_background" height="1794" width="1794" y="-1" x="-1"/>
 </g>
 <g>
  <title>Layer 1</title>
  <path stroke="null" id="svg_1" fill="#fff" d="m668.098145,888.078293q-45.092881,-98.716848 -45.092881,-226.073769l-155.996994,0l0,58.498873q0,47.530334 57.584828,98.716848t143.505047,68.858048zm656.893592,-167.574896l0,-58.498873l-155.996994,0q0,127.356921 -45.092881,226.073769q85.920219,-17.671534 143.505047,-68.858048t57.584828,-98.716848zm77.998497,-77.998497l0,77.998497q0,43.264791 -25.288575,87.138946t-68.248685,79.217224t-105.419844,59.412918t-131.317782,27.116665q-25.593257,32.905616 -57.889509,57.889509q-23.155804,20.718351 -31.991571,44.178836t-8.835767,54.538012q0,32.905616 18.585579,55.452056t59.412918,22.546441q45.702244,0 81.349995,27.726028t35.647751,69.772093l0,38.999249q0,8.531086 -5.484269,14.015355t-14.015355,5.484269l-506.990231,0q-8.531086,0 -14.015355,-5.484269t-5.484269,-14.015355l0,-38.999249q0,-42.046065 35.647751,-69.772093t81.349995,-27.726028q40.827338,0 59.412918,-22.546441t18.585579,-55.452056q0,-31.077526 -8.835767,-54.538012t-31.991571,-44.178836q-32.296253,-24.983894 -57.889509,-57.889509q-68.858048,-3.046816 -131.317782,-27.116665t-105.419844,-59.412918t-68.248685,-79.217224t-25.288575,-87.138946l0,-77.998497q0,-24.37453 17.062171,-41.436702t41.436702,-17.062171l175.496618,0l0,-58.498873q0,-40.217975 28.640073,-68.858048t68.858048,-28.640073l350.993237,0q40.217975,0 68.858048,28.640073t28.640073,68.858048l0,58.498873l175.496618,0q24.37453,0 41.436702,17.062171t17.062171,41.436702z"/>
 </g>
</svg>
